<?xml version="1.0" encoding="UTF-8" standalone="no"?>
<!DOCTYPE svg PUBLIC "-//W3C//DTD SVG 1.1//EN" "http://www.w3.org/Graphics/SVG/1.1/DTD/svg11.dtd">
<svg xmlns="http://www.w3.org/2000/svg" version="1.1" viewBox="0.00 0.00 592.00 250.00">
<path fill="#4f575d" d="
  M 286.50 96.41
  C 282.81 96.43 281.51 101.56 281.46 104.00
  Q 280.34 154.07 280.57 192.50
  C 280.58 194.47 280.34 195.64 278.31 196.38
  C 275.80 197.28 266.85 200.45 266.88 196.00
  Q 267.00 179.62 266.69 163.25
  Q 266.07 130.24 267.19 97.25
  C 267.37 91.75 272.94 86.45 277.29 84.50
  Q 281.06 82.82 289.95 82.69
  Q 301.78 82.53 313.60 82.71
  C 321.81 82.84 327.02 84.74 332.00 90.79
  C 336.58 96.36 336.39 101.03 336.50 109.31
  Q 336.90 138.91 336.26 149.25
  C 335.61 159.92 326.80 167.60 316.25 167.49
  Q 305.87 167.37 295.50 167.34
  Q 293.36 167.33 292.01 166.61
  Q 291.52 166.35 291.51 165.80
  C 291.43 162.75 291.58 154.61 295.25 154.63
  Q 307.57 154.68 315.48 153.89
  Q 318.88 153.55 320.82 151.01
  Q 322.08 149.36 322.07 146.18
  Q 322.04 124.63 322.04 103.11
  C 322.04 99.75 320.31 97.29 316.99 97.09
  Q 304.07 96.32 286.50 96.41
  Z"
/>
<path fill="#4f575d" d="
  M 367.99 146.96
  C 368.05 150.77 370.74 153.68 374.50 153.95
  Q 385.49 154.75 396.68 154.70
  A 2.12 2.12 0.0 0 1 398.79 157.17
  L 397.60 164.41
  Q 397.17 167.02 394.52 167.09
  Q 384.40 167.38 374.25 167.49
  C 361.24 167.63 353.30 156.63 353.11 144.50
  Q 352.71 119.29 353.51 102.26
  Q 354.15 88.79 365.01 84.43
  Q 368.96 82.84 377.38 82.68
  Q 397.30 82.30 405.24 82.81
  C 416.22 83.52 423.96 94.42 423.91 105.00
  Q 423.76 135.14 423.64 165.05
  A 2.04 2.04 0.0 0 1 421.92 167.05
  C 418.21 167.64 414.08 168.47 410.51 166.94
  A 2.05 2.04 -78.4 0 1 409.27 165.06
  C 409.25 145.34 409.24 125.58 408.59 105.87
  C 408.45 101.45 408.64 97.28 403.77 97.01
  Q 388.53 96.17 373.17 96.40
  A 1.69 1.64 -65.2 0 0 372.06 96.83
  C 369.48 99.12 368.53 101.70 368.40 105.36
  Q 367.66 126.16 367.99 146.96
  Z"
/>
<path fill="#4f575d" d="
  M 459.41 96.73
  Q 455.75 99.50 455.59 104.50
  Q 454.90 125.57 455.22 146.68
  C 455.30 151.53 458.65 153.85 463.11 154.04
  Q 475.17 154.57 495.00 154.67
  Q 498.12 154.69 497.42 157.96
  C 496.58 161.86 497.71 167.02 492.23 167.12
  Q 474.49 167.47 456.75 167.03
  C 451.15 166.89 445.29 160.49 443.04 155.98
  Q 441.49 152.89 441.47 149.00
  Q 441.36 123.81 441.55 98.62
  Q 441.57 95.50 442.72 93.30
  C 447.45 84.26 454.58 82.88 464.88 82.73
  Q 476.90 82.55 493.50 82.75
  Q 495.26 82.77 496.51 83.20
  A 1.16 1.16 0.0 0 1 497.22 83.84
  C 498.15 85.96 496.47 91.11 495.90 93.42
  C 495.20 96.24 491.16 96.56 488.00 96.53
  Q 474.52 96.41 460.58 96.34
  A 1.89 1.86 -63.0 0 0 459.41 96.73
  Z"
/>
<path fill="#4f575d" d="
  M 116.41 96.94
  C 113.38 97.07 109.37 98.62 109.38 102.25
  Q 109.48 124.00 109.62 145.74
  C 109.65 149.63 110.62 153.79 115.50 153.79
  Q 132.64 153.78 149.36 154.73
  A 2.36 2.36 0.0 0 1 151.55 157.52
  L 150.29 164.24
  A 3.72 3.72 0.0 0 1 146.66 167.28
  Q 132.05 167.39 117.50 167.37
  C 113.74 167.37 109.69 167.33 106.35 165.64
  C 98.36 161.59 95.49 155.09 95.30 146.11
  Q 94.86 124.56 95.27 103.02
  C 95.44 94.25 98.21 87.42 106.51 84.21
  Q 110.22 82.78 119.18 82.76
  Q 133.46 82.74 147.76 82.80
  C 150.06 82.80 151.80 83.50 151.32 86.26
  C 150.66 90.02 151.32 96.53 145.76 96.48
  Q 131.08 96.33 116.41 96.94
  Z"
/>
<path fill="#2fa9d3" d="
  M 215.82 142.30
  Q 215.41 146.72 216.64 152.12
  Q 217.16 154.44 216.96 161.09
  Q 216.94 161.59 216.54 161.90
  Q 214.32 163.59 211.57 164.15
  A 1.20 1.20 0.0 0 1 210.65 163.96
  Q 208.84 162.71 208.29 160.65
  Q 206.25 152.89 203.73 145.56
  A 2.13 2.13 0.0 0 0 200.06 144.91
  L 189.25 158.34
  A 1.90 1.90 0.0 0 1 186.87 158.82
  C 184.46 157.53 181.10 155.31 182.86 152.09
  Q 187.07 144.41 190.62 136.99
  A 1.65 1.64 -80.6 0 0 188.94 134.64
  L 172.24 136.69
  A 3.44 3.43 -12.6 0 1 168.55 134.35
  L 167.61 131.44
  Q 166.71 128.70 169.50 127.94
  C 174.21 126.65 181.02 125.18 185.82 122.52
  A 2.00 2.00 0.0 0 0 186.17 119.27
  Q 180.36 114.14 174.29 108.96
  Q 172.86 107.75 172.25 106.41
  A 1.06 1.04 48.1 0 1 172.29 105.48
  C 173.78 102.87 176.00 100.55 179.31 102.28
  Q 185.72 105.62 192.00 109.18
  Q 193.34 109.94 194.24 110.25
  A 1.95 1.95 0.0 0 0 196.80 108.26
  C 196.67 106.44 196.12 104.74 196.05 103.06
  Q 195.79 96.87 194.67 90.76
  C 194.08 87.52 197.71 86.87 199.87 86.18
  A 2.55 2.55 0.0 0 1 202.74 87.16
  Q 203.97 88.93 204.56 91.23
  Q 206.55 98.93 208.37 105.86
  A 1.54 1.54 0.0 0 0 211.07 106.42
  Q 216.93 98.99 222.66 92.91
  C 225.54 89.87 231.17 95.23 229.80 97.88
  Q 226.19 104.86 222.70 111.89
  Q 222.21 112.87 222.06 113.79
  A 1.45 1.45 0.0 0 0 223.62 115.47
  Q 228.35 115.07 233.23 114.96
  C 239.39 114.82 242.65 112.00 245.46 119.92
  A 1.78 1.77 71.8 0 1 244.31 122.21
  L 226.45 127.63
  A 2.02 1.86 61.0 0 0 225.69 130.76
  Q 226.06 131.21 226.85 131.89
  Q 233.38 137.57 239.42 142.39
  Q 241.43 143.99 239.60 145.80
  L 237.33 148.03
  Q 235.51 149.81 233.28 148.59
  L 218.86 140.69
  A 2.06 2.06 0.0 0 0 215.82 142.30
  Z"
/>
</svg>
