<?xml version="1.0" encoding="UTF-8" standalone="no"?><!DOCTYPE svg PUBLIC "-//W3C//DTD SVG 1.1//EN" "http://www.w3.org/Graphics/SVG/1.1/DTD/svg11.dtd"><svg xmlns="http://www.w3.org/2000/svg" version="1.1" viewBox="0.00 0.00 1572.00 460.00">
<g stroke-width="2.00" fill="none" stroke-linecap="butt">
<path stroke="#ffffff" vector-effect="non-scaling-stroke" d="   M 225.72 1.02   Q 163.43 1.06 101.17 1.01   C 95.73 1.01 89.73 1.27 84.53 0.63"/>
<path stroke="#ffffff" vector-effect="non-scaling-stroke" d="   M 870.23 1.05   L 741.80 1.03"/>
<path stroke="#ffffff" vector-effect="non-scaling-stroke" d="   M 1199.23 0.90   L 1080.91 1.11"/>
<path stroke="#ffffff" vector-effect="non-scaling-stroke" d="   M 1570.92 3.29   Q 1570.80 2.15 1570.29 1.55   Q 1569.86 1.06 1568.73 1.06   Q 1506.24 1.02 1443.75 0.92   Q 1437.52 0.91 1431.28 0.69"/>
<path stroke="#ffffff" vector-effect="non-scaling-stroke" d="   M 82.10 0.89   L 73.23 1.90"/>
<path stroke="#ffffff" vector-effect="non-scaling-stroke" d="   M 225.24 2.19   L 90.56 2.08"/>
<path stroke="#ffffff" vector-effect="non-scaling-stroke" d="   M 1184.53 2.18   L 1081.04 2.20"/>
<path stroke="#ffffff" vector-effect="non-scaling-stroke" d="   M 1568.16 1.99   L 1436.25 2.10"/>
<path stroke="#ffffff" vector-effect="non-scaling-stroke" d="   M 870.64 2.93   C 866.80 2.64 862.97 2.24 859.11 2.24   Q 800.47 2.25 741.82 2.22"/>
<path stroke="#ffffff" vector-effect="non-scaling-stroke" d="   M 1.13 272.94   L 0.00 267.48"/>
<path stroke="#ffffff" vector-effect="non-scaling-stroke" d="   M 0.00 70.68   Q 1.26 70.40 0.50 66.72"/>
<path stroke="#ffffff" vector-effect="non-scaling-stroke" d="   M 674.34 457.68   L 668.69 458.30   Q 668.60 458.31 668.61 458.39   L 668.63 458.69   Q 668.65 458.94 668.90 458.95   L 675.91 459.14"/>
</g>
<path fill="#ffffff" d="   M 101.38 0.00   L 225.25 0.00   Q 226.52 1.01 225.72 1.02   Q 163.43 1.06 101.17 1.01   C 95.73 1.01 89.73 1.27 84.53 0.63   L 101.38 0.00   Z"/>
<path fill="#ffffff" d="   M 742.86 0.00   L 870.00 0.00   Q 870.56 0.69 870.23 1.05   L 741.80 1.03   Q 741.40 0.60 742.86 0.00   Z"/>
<path fill="#ffffff" d="   M 1081.88 0.00   L 1181.74 0.00   L 1199.23 0.90   L 1080.91 1.11   Q 1080.43 0.78 1081.88 0.00   Z"/>
<path fill="#ffffff" d="   M 1445.38 0.00   L 1559.24 0.00   L 1571.22 0.29   Q 1571.74 0.31 1571.72 0.83   Q 1571.68 2.04 1570.92 3.29   Q 1570.80 2.15 1570.29 1.55   Q 1569.86 1.06 1568.73 1.06   Q 1506.24 1.02 1443.75 0.92   Q 1437.52 0.91 1431.28 0.69   L 1445.38 0.00   Z"/>
<path fill="#ffffff" d="   M 82.10 0.89   L 73.23 1.90   Q 70.80 2.01 67.28 0.80   Q 67.23 0.79 67.28 0.79   L 82.10 0.89   Z"/>
<ellipse fill="#ffffff" cx="0.00" cy="0.00" transform="translate(19.83,0.86) rotate(-0.2)" rx="7.92" ry="0.09"/>
<path fill="#ffffff" d="   M 82.10 0.89   L 84.53 0.63   C 89.73 1.27 95.73 1.01 101.17 1.01   Q 163.43 1.06 225.72 1.02   L 225.24 2.19   L 90.56 2.08   Q 84.36 1.36 78.24 2.20   Q 76.01 2.50 73.23 1.90   L 82.10 0.89   Z"/>
<path fill="#ffffff" d="   M 1199.23 0.90   L 1213.85 0.90   Q 1213.88 0.90 1213.87 0.87   Q 1213.87 0.86 1213.86 0.85   Q 1213.85 0.84 1213.83 0.84   Q 1209.43 2.40 1205.25 2.21   Q 1193.80 1.70 1184.53 2.18   L 1081.04 2.20   L 1080.91 1.11   L 1199.23 0.90   Z"/>
<path fill="#ffffff" d="   M 1431.28 0.69   Q 1437.52 0.91 1443.75 0.92   Q 1506.24 1.02 1568.73 1.06   Q 1569.86 1.06 1570.29 1.55   Q 1570.80 2.15 1570.92 3.29   L 1570.92 6.09   Q 1570.92 7.16 1570.27 6.31   C 1569.35 5.12 1570.30 3.02 1569.62 2.16   Q 1569.19 1.62 1568.16 1.99   L 1436.25 2.10   C 1428.67 1.21 1421.03 3.44 1413.75 1.11   Q 1413.34 0.98 1413.76 0.89   Q 1414.43 0.74 1415.01 1.10   A 0.58 0.56 -27.7 0 0 1415.32 1.19   L 1431.28 0.69   Z"/>
<path fill="#ffffff" d="   M 741.80 1.03   L 870.23 1.05   L 870.64 2.93   C 866.80 2.64 862.97 2.24 859.11 2.24   Q 800.47 2.25 741.82 2.22   L 741.80 1.03   Z"/>
<path fill="#ffffff" d="   M 1568.16 1.99   L 1558.89 56.38   Q 1558.71 57.47 1557.60 57.47   C 1514.56 57.58 1471.77 58.53 1428.86 58.69   C 1426.19 58.70 1423.69 59.14 1421.05 59.53   C 1414.67 60.46 1408.18 68.32 1405.64 73.74   C 1404.07 77.12 1403.75 82.25 1403.72 86.05   Q 1403.51 110.40 1403.02 134.75   C 1402.60 155.82 1402.76 176.92 1402.82 197.99   C 1402.88 218.57 1403.58 239.17 1403.76 259.75   C 1403.84 269.35 1412.23 277.63 1420.76 280.82   Q 1424.44 282.20 1430.94 282.35   C 1445.71 282.69 1460.60 283.23 1475.25 283.25   Q 1520.50 283.31 1566.56 283.28   Q 1569.12 283.28 1567.78 285.46   C 1567.39 286.10 1567.00 286.71 1566.88 287.60   C 1564.71 303.41 1561.68 319.04 1559.02 335.00   A 1.58 1.58 0.0 0 1 1557.46 336.32   C 1515.63 336.55 1473.85 336.78 1432.01 336.51   C 1426.74 336.48 1421.48 336.07 1416.16 335.73   Q 1412.72 335.51 1409.90 334.80   C 1381.20 327.53 1361.17 311.10 1350.87 282.96   Q 1348.28 275.88 1346.64 270.25   Q 1345.55 266.51 1345.52 262.10   Q 1345.06 176.55 1345.39 90.99   Q 1345.44 78.09 1346.74 71.08   C 1350.51 50.74 1362.85 28.11 1381.52 17.27   C 1389.62 12.57 1395.95 9.67 1405.00 7.28   Q 1409.47 6.10 1426.62 2.93   C 1429.72 2.35 1432.98 2.52 1436.25 2.10   L 1568.16 1.99   Z"/>
<path fill="#ffffff" d="   M 90.56 2.08   L 225.24 2.19   Q 223.74 7.80 222.80 13.51   Q 219.35 34.57 215.54 54.66   A 3.87 3.87 0.0 0 1 211.76 57.80   C 169.34 58.10 126.92 58.52 84.50 58.68   C 80.28 58.70 75.56 59.40 71.87 61.76   Q 64.41 66.51 60.71 74.56   Q 59.57 77.04 59.57 80.42   Q 59.46 166.80 59.70 253.15   C 59.71 256.82 60.19 260.53 60.54 264.26   C 61.21 271.37 72.49 280.56 79.23 281.50   C 81.26 281.78 83.30 282.17 85.34 282.20   C 128.47 282.92 171.61 283.13 214.75 283.45   Q 218.41 283.48 222.47 284.31   A 1.53 1.52 -80.0 0 1 223.67 286.03   Q 220.03 310.15 214.80 333.76   Q 214.29 336.05 211.67 336.23   Q 204.22 336.75 196.75 336.76   Q 142.42 336.87 88.10 336.51   C 77.60 336.44 68.11 335.97 57.43 332.50   Q 31.30 324.03 16.07 301.22   Q 8.87 290.43 3.89 274.66   Q 3.26 272.66 1.13 272.94   L 0.00 267.48   L 0.00 70.68   Q 1.26 70.40 0.50 66.72   Q 0.00 67.31 0.70 66.37   A 0.33 0.32 -72.1 0 1 0.93 66.25   Q 3.59 66.10 4.04 64.52   C 8.81 47.50 19.02 29.70 33.83 19.67   C 48.66 9.63 63.09 6.30 80.75 3.10   Q 80.95 3.07 81.31 2.87   Q 81.75 2.64 82.24 2.61   L 90.56 2.08   Z"/>
<path fill="#ffffff" d="   M 741.82 2.22   Q 800.47 2.25 859.11 2.24   C 862.97 2.24 866.80 2.64 870.64 2.93   Q 871.88 4.69 873.48 5.08   Q 881.90 7.11 887.93 9.13   C 914.17 17.92 931.75 38.39 938.55 64.75   C 939.98 70.27 940.45 76.74 940.52 82.55   Q 940.73 100.65 941.07 118.75   C 941.90 163.52 941.08 208.31 940.52 253.08   C 940.44 259.75 940.31 267.21 938.83 273.61   C 931.57 305.03 908.72 327.16 877.34 334.47   Q 873.00 335.48 866.59 335.84   C 861.73 336.11 856.97 336.47 852.13 336.52   Q 809.55 336.94 766.44 336.61   A 2.96 2.96 0.0 0 1 763.54 333.18   Q 767.10 310.92 771.51 288.26   Q 771.90 286.24 772.44 284.63   A 1.71 1.70 8.8 0 1 774.05 283.46   Q 785.82 283.38 797.25 283.05   C 818.00 282.46 838.75 282.51 859.50 282.28   C 869.39 282.17 879.34 273.71 883.34 265.20   Q 884.44 262.85 884.44 259.70   C 884.47 202.28 884.76 144.89 884.44 87.48   Q 884.40 79.54 883.02 75.68   C 880.44 68.50 874.54 62.85 867.60 59.69   Q 865.10 58.55 861.69 58.55   C 824.87 58.56 788.08 58.09 751.27 57.80   Q 747.74 57.77 744.94 58.84   C 735.42 62.50 726.10 70.62 725.83 80.79   Q 725.62 88.65 725.57 96.50   C 724.88 212.52 724.87 328.52 724.60 444.54   A 1.28 1.27 84.7 0 1 723.58 445.78   Q 715.64 447.33 707.54 448.80   C 697.02 450.70 686.07 453.44 675.26 455.55   Q 674.06 455.79 673.27 456.66   Q 672.81 457.18 673.47 457.40   L 674.34 457.68   L 668.69 458.30   Q 668.60 458.31 668.61 458.39   L 668.63 458.69   Q 668.65 458.94 668.90 458.95   L 675.91 459.14   L 669.88 460.00   L 668.50 460.00   Q 667.86 459.71 666.91 459.62   A 0.39 0.39 0.0 0 1 666.65 458.97   L 667.30 458.23   Q 667.64 457.85 667.63 457.35   Q 667.39 437.54 667.43 417.75   C 667.43 415.54 666.71 413.03 666.70 410.73   C 666.69 393.06 667.20 375.09 667.21 357.75   Q 667.28 218.03 667.47 78.30   Q 667.48 73.80 668.53 69.82   Q 669.95 64.47 671.68 59.22   C 679.35 35.97 695.95 17.64 718.79 9.70   Q 724.43 7.74 736.01 5.02   Q 737.11 4.76 740.59 3.35   Q 741.05 3.16 741.37 2.77   L 741.82 2.22   Z"/>
<path fill="#ffffff" d="   M 1081.04 2.20   L 1184.53 2.18   Q 1196.43 2.03 1199.99 2.77   C 1223.15 7.62 1245.23 12.61 1260.56 31.70   Q 1268.08 41.06 1274.31 55.71   C 1279.11 66.99 1279.72 77.05 1279.74 87.75   Q 1279.92 203.75 1279.63 319.75   Q 1279.61 326.63 1279.36 333.50   C 1279.22 337.37 1273.79 336.70 1271.15 336.73   Q 1244.89 337.04 1228.00 336.64   Q 1223.69 336.54 1223.54 332.09   Q 1223.35 326.27 1223.29 320.50   Q 1222.12 199.13 1222.53 77.75   Q 1222.53 76.89 1221.53 75.02   C 1217.86 68.25 1213.31 63.05 1206.03 60.21   C 1199.49 57.67 1189.85 58.49 1182.25 58.48   Q 1114.75 58.35 1088.00 58.74   C 1084.83 58.79 1080.57 59.47 1077.64 61.33   C 1072.18 64.81 1064.56 72.34 1064.56 79.53   Q 1064.58 171.02 1064.56 262.50   C 1064.56 266.42 1069.74 272.32 1072.44 275.04   C 1078.46 281.12 1084.33 282.08 1093.46 282.27   Q 1137.73 283.20 1182.08 283.43   Q 1184.04 283.44 1183.79 285.38   Q 1181.09 306.48 1177.01 327.45   C 1175.32 336.13 1174.89 336.69 1166.30 336.72   Q 1130.23 336.89 1094.18 336.55   C 1089.23 336.51 1083.84 335.99 1078.61 335.71   C 1070.19 335.27 1062.68 333.06 1054.71 329.51   C 1028.36 317.78 1014.78 297.14 1007.52 269.78   Q 1006.45 265.75 1006.45 261.09   Q 1006.39 170.12 1006.45 79.15   Q 1006.45 73.49 1007.58 68.99   C 1012.60 48.96 1023.82 28.22 1041.97 17.18   Q 1053.34 10.27 1066.29 7.20   C 1070.79 6.14 1078.32 4.76 1081.04 2.20   Z"/>
<path fill="#009eb6" d="   M 448.33 103.29   Q 450.74 102.37 452.20 100.71   C 471.15 79.31 488.19 56.21 506.82 34.50   A 1.49 1.49 0.0 0 1 508.81 34.27   C 516.70 39.94 524.19 48.35 530.95 55.40   A 2.63 2.63 0.0 0 1 531.38 58.43   C 519.00 81.88 504.86 104.75 491.37 127.60   Q 489.66 130.50 490.68 133.45   A 2.29 2.29 0.0 0 0 493.09 134.97   C 518.19 132.23 543.21 128.77 568.27 125.73   C 571.27 125.37 576.25 124.05 577.88 127.55   Q 584.31 141.37 590.09 155.66   A 1.44 1.43 -24.6 0 1 589.41 157.48   Q 587.76 158.30 585.97 158.81   Q 549.57 169.08 513.05 178.89   Q 508.53 180.10 504.13 181.68   C 500.73 182.90 503.32 186.81 505.05 188.21   Q 533.04 210.89 561.38 233.14   Q 566.61 237.24 572.05 241.84   A 0.86 0.86 0.0 0 1 572.13 243.07   Q 561.22 255.14 548.91 265.76   A 2.01 1.99 -51.2 0 1 546.67 266.01   C 525.46 254.72 504.74 242.14 483.86 230.23   C 478.79 227.34 474.41 223.95 469.95 225.04   Q 469.46 225.16 469.40 225.66   Q 469.15 227.87 469.46 230.01   C 472.94 254.53 475.74 279.14 479.37 303.64   C 479.77 306.32 479.81 308.95 479.89 311.59   A 1.84 1.82 78.4 0 1 478.74 313.35   L 449.08 325.16   A 1.77 1.77 0.0 0 1 446.78 324.16   Q 446.14 322.52 445.64 320.72   Q 434.86 281.15 423.52 241.73   Q 423.11 240.31 422.31 239.07   Q 422.04 238.64 421.54 238.55   C 419.32 238.16 417.57 238.27 416.03 240.18   C 398.20 262.26 381.27 284.81 362.95 306.87   Q 362.19 307.79 361.16 307.19   Q 360.03 306.54 358.59 305.17   Q 348.56 295.65 339.67 285.79   A 2.10 2.09 -54.0 0 1 339.32 283.53   Q 341.67 278.38 344.51 273.26   C 355.61 253.27 367.42 233.61 378.22 213.48   Q 379.78 210.55 379.78 207.42   A 1.42 1.42 0.0 0 0 378.27 206.00   Q 373.35 206.31 368.50 206.98   Q 332.78 211.98 297.00 216.57   C 293.68 217.00 292.25 216.19 290.91 213.06   Q 284.93 199.06 279.84 184.99   A 1.25 1.24 70.9 0 1 280.62 183.38   Q 287.45 181.14 294.00 179.32   Q 340.31 166.43 362.26 159.98   Q 363.96 159.48 366.81 157.93   Q 367.22 157.70 367.41 157.27   Q 368.41 154.98 366.70 153.53   Q 361.24 148.90 358.76 146.95   Q 330.00 124.35 301.26 101.74   Q 298.94 99.91 296.82 98.03   A 0.56 0.56 0.0 0 1 296.80 97.21   L 319.37 75.06   Q 320.82 73.64 322.60 74.63   Q 352.99 91.67 382.89 108.88   Q 387.10 111.29 394.56 115.05   Q 395.05 115.30 395.55 115.07   L 398.06 113.89   A 1.09 1.09 0.0 0 0 398.68 112.86   C 398.52 108.58 398.38 104.39 397.86 100.09   Q 393.54 64.68 389.37 29.25   Q 389.04 26.41 391.31 25.48   Q 410.19 17.81 418.01 15.52   C 422.42 14.24 423.04 17.13 423.95 20.48   Q 434.60 59.96 444.98 99.51   Q 445.60 101.84 447.46 103.17   Q 447.87 103.46 448.33 103.29   Z"/>
<path fill="#ffffff" d="   M 0.50 66.72   Q 1.26 70.40 0.00 70.68   L 0.00 67.50   Q 0.08 67.88 0.50 66.72   Z"/>
<path fill="#ffffff" d="   M 0.00 267.48   L 1.13 272.94   Q 1.79 273.43 1.23 273.88   Q 0.70 274.31 0.52 273.64   L 0.00 271.62   L 0.00 267.48   Z"/>
<path fill="#ffffff" d="   M 1570.95 286.68   A 0.03 0.03 0.0 0 1 1570.91 286.71   L 1570.84 286.70   A 2.13 1.46 -84.0 0 1 1569.62 284.43   L 1569.65 284.07   A 2.13 1.46 -84.0 0 1 1571.33 282.10   L 1571.40 282.11   A 0.03 0.03 0.0 0 1 1571.42 282.14   L 1570.95 286.68   Z"/>
<path fill="#ffffff" d="   M 674.34 457.68   Q 678.59 459.27 675.91 459.14   L 668.90 458.95   Q 668.65 458.94 668.63 458.69   L 668.61 458.39   Q 668.60 458.31 668.69 458.30   L 674.34 457.68   Z"/>
</svg>