<svg xmlns="http://www.w3.org/2000/svg" xmlns:xlink="http://www.w3.org/1999/xlink" id="Layer_1" data-name="Layer 1" viewBox="0 0 1230.79 451.84"><defs fill="#000000"><style>.cls-1{fill:none;}.cls-2{clip-path:url(#clip-path);}.cls-3{fill:#000000;}.cls-4{fill:#010101;}.cls-5,.cls-6{fill:#000000;}.cls-6{font-size:55px;font-family:CourierNewPS-BoldMT, Courier New;font-weight:700;}</style><clipPath id="clip-path" transform="translate(-1.15 -11.43)" fill="#000000"><rect class="cls-1" x="-159.35" y="134.02" width="445" height="207.78" transform="translate(-182.97 241.94) rotate(-76.07)" fill="#000000"/></clipPath></defs><g class="cls-2"><g class="cls-2"><path class="cls-3" d="M47.36,463.09c3-18.32,2.55-36.63,1.31-54.91-2.4-35.36-7.89-70.17-14.24-104.81-7.36-40.08-15.89-79.86-26-119.19C3.77,166,3.83,147.65,6.74,129.06c.6-3.82,2.08-7.45,3-11.2,1.45-5.7.83-11.35-.59-16.9C6.92,92.14,3.85,83.58,2.24,74.54c-2.74-15.41-.55-29.8,9.38-42.31C19,22.9,27.94,15.6,39.29,12.56c7.7-2.06,15.34-1,22.84.95A97.21,97.21,0,0,1,90.51,26.6a5.57,5.57,0,0,0,3.39,1Q114,27.13,134,26.73a4.2,4.2,0,0,1,2.16.11c-2.49,1.73-4.91,3.59-7.48,5.15-9.81,5.95-19.56,12-29.14,18.35-4.66,3.08-8.6,6.93-10.7,12.52S88.21,73.37,93,76.43c10.19,6.54,19.18,14.48,26.21,24.74,8.55,12.47,12.36,26.8,13.64,42.08,1,11.44-.11,22.82-2.09,34.16a72.66,72.66,0,0,0-1.58,11.26c0,2.69.68,3.23,3.07,2.39,3.86-1.35,6.69-4.15,9.1-7.49,5.06-7,8-15.12,10.33-23.42,1.52-5.32,3-10.64,5.91-15.38,2-3.17,4.52-5.32,8.42-5.36a45.5,45.5,0,0,0-7.22,17.26c.79.47,1-.16,1.26-.51a39.91,39.91,0,0,0,2.39-4c4.45-9.13,11.87-11.62,20.52-10.51a41,41,0,0,1,8.22,2.1c.21.3.16.53-.19.68-4.55.13-8.18,2.55-11.44,5.66-6.55,6.26-10.77,14.18-14.28,22.54a33.53,33.53,0,0,0-2.82,17c1,8.91,5.75,15.17,12.72,19.75.59.4,1.22.75,1.84,1.13a2.28,2.28,0,0,1-1.89,1.28c-4.77,1-9.32.74-13.15-2.73-4.55-4.1-7.52-9.47-10.43-14.88-.23-.43-.44-.87-.65-1.31-1.74-3.52-1.74-3.52-4.59-.55-6.53,6.81-11.23,14.92-15.42,23.41-12.23,24.8-23.24,50.19-34.62,75.4-4.79,10.62-9.78,21.15-14.57,31.78-3.29,7.3-5,15.1-6.24,23-3.27,20.24-3.8,40.57-3.36,60.93a7.64,7.64,0,0,1-.12,1.06c0,.69,0,1.35-.92.76-2.29-8.28-4.07-16.74-6.64-24.93l-.57.15c.33,3.6.7,7.2,1,10.81A218,218,0,0,1,64.27,438c-.12,1-.35,2-.54,2.95s.13,2-1,2.45a186.44,186.44,0,0,0-5.89-34.21c-.9-.31-.46.44-.55.77.33,18.23-3.9,35.77-8.62,53.24-.16.18-.27.16-.35-.06" transform="translate(-1.15 -11.43)" fill="#000000"/><path class="cls-4" d="M387.36,124.34l1-.11.78,7.16,3.43-.37.1.87-4.47.48Z" transform="translate(-1.15 -11.43)" fill="#000000"/><path class="cls-4" d="M394.19,124.24a.62.62,0,0,1-.59.72.64.64,0,0,1-.71-.57.65.65,0,0,1,.59-.73A.62.62,0,0,1,394.19,124.24Zm-.36,7.52L393.2,126l1.05-.11.63,5.77Z" transform="translate(-1.15 -11.43)" fill="#000000"/></g></g><path class="cls-5" d="M174.9,115.91h35.8V235.46h58.05v29.83H174.9Z" transform="translate(-1.15 -11.43)" fill="#000000"/><path class="cls-5" d="M289.63,116.83c0-11,8.26-18.13,20-18.13s20,7.12,20,18.13c0,11.24-8.26,18.36-20,18.36S289.63,128.07,289.63,116.83Zm2.3,34.42h35.33v114H291.93Z" transform="translate(-1.15 -11.43)" fill="#000000"/><path class="cls-5" d="M388.07,145.74H347.45V115.91h116.8v29.83H423.64V265.29H388.07Z" transform="translate(-1.15 -11.43)" fill="#000000"/><path class="cls-5" d="M487.19,115.91H523v56.91h49.33V115.91h35.57V265.29H572.32V203.8H523v61.49h-35.8Z" transform="translate(-1.15 -11.43)" fill="#000000"/><path class="cls-5" d="M633.13,208.16c0-36.95,26.62-59.66,53.92-59.66,33,0,49.11,23.86,49.11,54.84a82.56,82.56,0,0,1-1.38,15.6H667.55c3.21,15.38,14,22,28.45,22,8.26,0,16.52-2.52,24.55-7.11L732,255.2c-11.94,8.49-27.54,12.85-41.08,12.85C658.37,268.05,633.13,246.25,633.13,208.16Zm72.74-13.08c0-11.25-5-19.74-17.9-19.74-10.1,0-18.59,6.43-20.88,19.74Z" transform="translate(-1.15 -11.43)" fill="#000000"/><path class="cls-5" d="M758.87,104.9h35.34v38.55l-1.61,20.42c8.49-7.57,19.5-15.37,35.11-15.37,24.78,0,35.34,17.67,35.34,46.12v70.67H827.48V199.21c0-15.83-4.13-20.65-13.31-20.65-8,0-12.85,3.9-20,10.32v76.41H758.87Z" transform="translate(-1.15 -11.43)" fill="#000000"/><path class="cls-5" d="M885.76,233.4c0-24.1,18.59-37.17,63.56-41.76-.92-9.41-5.74-14.92-17.44-14.92-9.18,0-18.36,3.21-29.83,9.64l-12.39-23c14.92-9.18,31.21-14.91,49.11-14.91,29.37,0,45.89,16.29,45.89,52.08v64.71H955.75l-2.53-11.47h-.92c-9.4,8.49-19.73,14.23-32.58,14.23C898.84,268.05,885.76,252.44,885.76,233.4Zm63.56-1.84V213.43c-22.72,3-29.6,9.18-29.6,17.21,0,6.66,4.36,9.87,12.16,9.87C939,240.51,943.81,237.07,949.32,231.56Z" transform="translate(-1.15 -11.43)" fill="#000000"/><path class="cls-5" d="M1006,208.16c0-37.86,28.22-59.66,59.89-59.66a49.13,49.13,0,0,1,33.27,12.16l-16.52,21.8c-5.28-3.9-9.64-5.51-14.69-5.51-15.83,0-25.7,12.39-25.7,31.21,0,19,10.56,31.2,24.55,31.2,7.58,0,14-2.75,19.74-7.11l13.77,22.26c-11,10.09-25.47,13.54-37.64,13.54C1030.55,268.05,1006,246,1006,208.16Z" transform="translate(-1.15 -11.43)" fill="#000000"/><path class="cls-5" d="M1120,104.9h35.1v89.49h.69l34-43.14h39l-39.69,47.5,42.45,66.54H1193l-24.79-43.37-13.08,15.15v28.22H1120Z" transform="translate(-1.15 -11.43)" fill="#000000"/><rect class="cls-5" x="173.79" y="313.81" width="433" height="12" fill="#000000"/><rect class="cls-5" x="792.79" y="313.81" width="438" height="13" fill="#000000"/><text class="cls-6" transform="translate(615.63 332.97)" fill="#000000">23/24</text></svg>