<?xml version="1.0" encoding="UTF-8" standalone="no"?><!DOCTYPE svg PUBLIC "-//W3C//DTD SVG 1.1//EN" "http://www.w3.org/Graphics/SVG/1.1/DTD/svg11.dtd"><svg xmlns="http://www.w3.org/2000/svg" version="1.1" viewBox="0.00 0.00 2560.00 676.00">
<path fill="#ffffff" d="   M 0.00 0.00   L 203.28 0.00   L 203.28 656.45   A 0.27 0.27 0.0 0 1 203.01 656.72   L 0.00 656.71   L 0.00 0.00   Z"/>
<circle fill="#ffffff" cx="1802.95" cy="180.95" r="10.82"/>
<circle fill="#ffffff" cx="1852.76" cy="180.95" r="10.82"/>
<path fill="#ffffff" d="   M 2418.16 323.24   A 0.40 0.40 0.0 0 0 2417.76 322.85   L 2370.37 322.86   A 0.33 0.33 0.0 0 1 2370.04 322.53   L 2370.04 307.20   Q 2370.04 306.69 2370.55 306.69   L 2435.48 306.69   Q 2435.96 306.69 2435.96 307.17   Q 2436.14 326.97 2435.96 335.74   C 2435.06 379.96 2397.37 408.46 2354.69 398.76   C 2323.41 391.65 2305.68 364.74 2305.61 333.50   Q 2305.53 299.50 2305.57 265.50   Q 2305.59 252.76 2310.94 239.31   C 2323.60 207.52 2356.85 193.86 2388.96 202.37   C 2418.72 210.26 2435.82 236.68 2435.97 266.65   Q 2435.97 267.14 2435.47 267.14   L 2418.75 267.14   Q 2418.19 267.14 2418.17 266.58   C 2417.28 241.04 2403.15 220.18 2376.19 217.61   C 2347.60 214.88 2328.44 231.49 2324.28 259.43   Q 2323.56 264.28 2323.49 275.63   Q 2323.19 323.32 2323.54 336.75   C 2324.42 369.82 2353.83 389.81 2385.21 380.82   C 2404.96 375.17 2416.33 358.78 2417.77 338.73   Q 2418.33 330.94 2418.16 323.24   Z"/>
<path fill="#ffffff" d="   M 1788.21 387.55   C 1771.23 375.05 1762.68 354.70 1762.59 333.75   Q 1762.45 299.25 1762.53 264.75   Q 1762.55 254.65 1766.09 244.12   C 1772.74 224.32 1787.07 209.14 1807.45 203.14   C 1827.47 197.25 1850.96 200.23 1867.82 212.95   C 1881.54 223.31 1889.73 238.89 1892.32 255.84   Q 1893.18 261.43 1893.21 273.71   Q 1893.30 302.60 1893.21 331.50   C 1893.16 347.10 1889.51 361.72 1880.59 374.30   C 1860.14 403.14 1816.23 408.17 1788.21 387.55   Z   M 1797.16 228.07   C 1784.90 238.04 1780.40 253.08 1780.38 268.75   Q 1780.32 300.63 1780.30 332.50   C 1780.27 356.56 1793.14 376.88 1817.70 381.73   Q 1825.68 383.31 1833.26 382.45   C 1861.09 379.31 1875.41 358.30 1875.38 331.75   Q 1875.35 299.75 1875.36 267.75   C 1875.38 242.26 1860.91 221.50 1834.79 218.03   C 1821.34 216.25 1807.64 219.54 1797.16 228.07   Z"/>
<rect fill="#ffffff" x="251.97" y="203.28" width="203.26" height="453.44" rx="0.31"/>
<path fill="#ffffff" d="   M 812.50 643.23   C 761.95 616.07 725.73 571.00 709.57 515.71   C 699.94 482.76 696.29 449.77 696.28 416.00   Q 696.27 309.72 696.29 203.49   A 0.23 0.23 0.0 0 1 696.52 203.26   L 898.49 203.26   Q 899.00 203.26 899.00 203.77   Q 899.03 335.79 898.95 467.74   C 898.94 488.87 909.44 503.39 932.01 501.29   C 951.74 499.46 957.00 483.45 957.00 466.44   Q 957.02 334.95 957.01 203.51   A 0.26 0.25 -0.0 0 1 957.27 203.26   L 1159.48 203.26   A 0.22 0.22 0.0 0 1 1159.70 203.48   Q 1159.77 309.84 1159.85 416.25   C 1159.88 457.08 1154.29 498.52 1139.26 536.49   C 1118.49 588.96 1075.85 631.69 1023.70 652.68   C 988.34 666.91 950.33 670.97 911.50 669.22   C 877.09 667.68 842.95 659.59 812.50 643.23   Z"/>
<path fill="#ffffff" d="   M 1380.16 380.92   L 1380.17 397.38   A 0.43 0.43 0.0 0 1 1379.74 397.81   L 1277.96 397.81   A 0.43 0.43 0.0 0 1 1277.53 397.38   L 1277.55 203.70   A 0.43 0.43 0.0 0 1 1277.98 203.27   L 1295.00 203.27   A 0.43 0.43 0.0 0 1 1295.43 203.70   L 1295.43 380.06   A 0.43 0.43 0.0 0 0 1295.86 380.49   L 1379.73 380.49   A 0.43 0.43 0.0 0 1 1380.16 380.92   Z"/>
<rect fill="#ffffff" x="1401.23" y="203.27" width="17.82" height="194.54" rx="0.31"/>
<path fill="#ffffff" d="   M 1476.44 238.88   L 1476.45 397.29   Q 1476.45 397.78 1475.96 397.78   L 1459.02 397.78   Q 1458.52 397.78 1458.52 397.27   L 1458.52 203.74   Q 1458.52 203.26 1459.01 203.26   L 1473.98 203.26   Q 1474.40 203.26 1474.61 203.61   L 1569.34 363.05   Q 1569.75 363.74 1569.75 362.94   L 1569.75 203.88   Q 1569.75 203.26 1570.37 203.26   L 1587.27 203.26   A 0.38 0.38 0.0 0 1 1587.65 203.64   L 1587.65 397.56   A 0.21 0.21 0.0 0 1 1587.44 397.77   L 1572.04 397.78   Q 1571.50 397.78 1571.22 397.31   L 1476.95 238.75   Q 1476.44 237.90 1476.44 238.88   Z"/>
<path fill="#ffffff" d="   M 1650.21 290.52   L 1669.90 290.52   A 0.33 0.33 0.0 0 0 1670.18 290.37   L 1727.71 203.41   A 0.33 0.33 0.0 0 1 1727.99 203.26   L 1747.64 203.26   A 0.33 0.33 0.0 0 1 1747.91 203.77   L 1685.16 298.86   A 0.33 0.33 0.0 0 0 1685.17 299.24   L 1758.52 397.24   A 0.33 0.33 0.0 0 1 1758.25 397.77   L 1737.80 397.78   A 0.33 0.33 0.0 0 1 1737.53 397.65   L 1669.94 307.44   A 0.33 0.33 0.0 0 0 1669.67 307.31   L 1650.21 307.31   A 0.33 0.33 0.0 0 0 1649.88 307.64   L 1649.88 397.44   A 0.33 0.33 0.0 0 1 1649.55 397.77   L 1632.33 397.78   A 0.33 0.33 0.0 0 1 1632.00 397.45   L 1632.00 203.59   A 0.33 0.33 0.0 0 1 1632.33 203.26   L 1649.55 203.26   A 0.33 0.33 0.0 0 1 1649.88 203.59   L 1649.88 290.19   A 0.33 0.33 0.0 0 0 1650.21 290.52   Z"/>
<path fill="#ffffff" d="   M 1946.50 342.55   L 1946.50 397.26   Q 1946.50 397.78 1945.99 397.78   L 1929.21 397.78   Q 1928.64 397.78 1928.64 397.21   L 1928.64 203.60   A 0.33 0.33 0.0 0 1 1928.97 203.27   Q 1956.64 203.24 1984.50 203.25   C 2018.23 203.26 2044.81 222.65 2049.47 256.77   Q 2051.94 274.94 2049.51 291.26   C 2044.56 324.31 2017.03 342.01 1985.50 341.94   Q 1966.24 341.89 1946.98 342.06   Q 1946.50 342.07 1946.50 342.55   Z   M 2008.76 226.02   Q 1998.06 221.10 1987.75 220.98   Q 1967.24 220.73 1946.84 220.89   A 0.35 0.35 0.0 0 0 1946.50 221.24   L 1946.50 324.23   Q 1946.50 324.68 1946.95 324.68   Q 1965.85 324.72 1984.75 324.67   C 2004.87 324.62 2022.63 315.81 2029.71 296.00   C 2032.59 287.94 2032.95 279.15 2032.78 270.18   C 2032.44 251.73 2026.88 234.36 2008.76 226.02   Z"/>
<rect fill="#ffffff" x="2081.76" y="203.27" width="17.92" height="194.54" rx="0.35"/>
<path fill="#ffffff" d="   M 2252.42 362.75   L 2252.42 203.86   Q 2252.42 203.26 2253.02 203.26   L 2269.77 203.26   Q 2270.28 203.26 2270.28 203.77   L 2270.28 397.25   Q 2270.28 397.77 2269.75 397.77   L 2254.70 397.78   Q 2254.14 397.78 2253.86 397.31   L 2159.81 239.09   Q 2159.06 237.83 2159.06 239.30   L 2159.06 397.24   Q 2159.06 397.78 2158.52 397.78   L 2141.75 397.78   Q 2141.21 397.78 2141.21 397.25   L 2141.21 203.77   Q 2141.21 203.26 2141.73 203.26   L 2156.50 203.26   Q 2157.04 203.26 2157.32 203.72   L 2251.89 362.89   Q 2252.42 363.78 2252.42 362.75   Z"/>
<ellipse fill="#ffffff" cx="0.00" cy="0.00" transform="translate(588.35,565.26) rotate(89.5)" rx="108.08" ry="107.95"/>
<path fill="#ffffff" d="   M 2166.49 568.72   C 2139.79 562.10 2107.03 554.88 2102.06 522.14   C 2095.03 475.87 2133.24 453.39 2174.23 459.88   C 2206.63 465.00 2224.01 489.42 2224.38 521.35   Q 2224.38 521.78 2223.96 521.78   L 2207.01 521.78   Q 2206.51 521.78 2206.49 521.27   C 2205.08 486.52 2180.20 471.79 2148.01 477.54   C 2127.81 481.16 2116.87 496.82 2119.22 517.01   C 2121.42 535.89 2138.68 543.64 2154.77 547.88   Q 2179.78 554.48 2186.76 556.48   C 2204.19 561.49 2220.53 571.10 2225.74 589.49   Q 2229.37 602.31 2226.27 616.96   C 2219.60 648.59 2190.17 660.74 2160.63 659.88   C 2121.04 658.73 2097.87 629.59 2098.41 590.94   Q 2098.42 590.42 2098.94 590.42   L 2115.27 590.41   Q 2116.02 590.41 2116.00 591.16   C 2115.58 607.62 2120.99 624.85 2134.74 634.65   C 2151.81 646.83 2183.64 645.57 2199.26 630.99   C 2207.91 622.91 2211.24 610.84 2209.24 599.27   C 2205.67 578.64 2183.54 572.94 2166.49 568.72   Z"/>
<path fill="#ffffff" d="   M 1370.89 631.19   C 1382.16 621.93 1387.44 607.53 1387.50 593.00   Q 1387.74 527.68 1387.74 462.76   Q 1387.74 462.14 1388.36 462.14   L 1404.98 462.14   Q 1405.52 462.14 1405.52 462.68   Q 1405.58 524.10 1405.50 585.49   Q 1405.49 599.13 1404.37 605.43   C 1397.24 645.81 1359.09 667.18 1320.38 656.11   C 1290.30 647.51 1274.63 620.50 1274.69 590.25   Q 1274.79 526.36 1274.83 462.42   A 0.28 0.28 0.0 0 1 1275.11 462.14   L 1292.23 462.14   Q 1292.71 462.14 1292.71 462.63   Q 1292.71 526.83 1292.72 590.99   C 1292.72 607.58 1298.32 623.31 1311.92 633.00   C 1328.80 645.02 1354.79 644.41 1370.89 631.19   Z"/>
<path fill="#ffffff" d="   M 1559.67 621.71   L 1559.67 462.59   Q 1559.67 462.14 1560.12 462.14   L 1576.96 462.14   Q 1577.52 462.14 1577.52 462.71   L 1577.52 656.23   Q 1577.52 656.74 1577.02 656.74   L 1561.99 656.74   Q 1561.45 656.74 1561.18 656.28   L 1466.85 497.62   Q 1466.31 496.72 1466.31 497.77   L 1466.31 656.21   Q 1466.31 656.74 1465.79 656.74   L 1448.99 656.74   Q 1448.48 656.74 1448.48 656.24   L 1448.48 462.71   Q 1448.48 462.15 1449.04 462.15   L 1463.73 462.14   Q 1464.30 462.14 1464.59 462.62   L 1559.18 621.85   Q 1559.67 622.68 1559.67 621.71   Z"/>
<path fill="#ffffff" d="   M 1730.22 627.95   L 1783.65 462.64   Q 1783.81 462.14 1784.35 462.14   L 1801.98 462.15   Q 1802.56 462.15 1802.38 462.71   L 1738.70 656.44   A 0.44 0.44 0.0 0 1 1738.28 656.74   L 1722.02 656.74   Q 1721.51 656.74 1721.35 656.26   L 1657.95 462.53   A 0.30 0.30 0.0 0 1 1658.23 462.14   L 1676.25 462.14   A 0.53 0.51 80.5 0 1 1676.74 462.50   L 1729.91 627.95   Q 1730.06 628.44 1730.22 627.95   Z"/>
<path fill="#ffffff" d="   M 2029.92 592.30   A 0.30 0.29 66.3 0 0 2029.74 592.77   L 2078.97 656.11   Q 2079.42 656.68 2078.69 656.68   L 2058.29 656.69   Q 2057.79 656.69 2057.49 656.29   L 2011.40 595.85   A 1.14 1.13 -18.7 0 0 2010.50 595.41   L 1975.25 595.42   Q 1974.91 595.42 1974.91 595.75   L 1974.91 656.24   A 0.45 0.44 -90.0 0 1 1974.47 656.69   L 1957.60 656.69   A 0.59 0.58 -90.0 0 1 1957.02 656.10   L 1957.02 462.74   Q 1957.02 462.15 1957.61 462.15   Q 1987.02 462.12 2016.24 462.19   C 2040.05 462.25 2063.80 473.96 2073.27 496.48   C 2079.52 511.34 2080.32 529.43 2077.97 545.00   C 2074.01 571.25 2055.49 588.08 2029.92 592.30   Z   M 2045.25 488.95   C 2037.02 482.89 2026.09 479.97 2015.74 479.83   Q 1999.66 479.60 1975.39 479.79   Q 1974.91 479.80 1974.91 480.28   L 1974.91 577.49   Q 1974.91 577.96 1975.39 577.97   Q 2006.75 578.26 2015.75 577.97   C 2033.34 577.40 2050.33 569.79 2057.36 553.23   Q 2060.58 545.64 2061.17 533.88   C 2062.00 517.05 2059.58 499.51 2045.25 488.95   Z"/>
<rect fill="#ffffff" x="2261.70" y="462.11" width="17.82" height="194.58" rx="0.29"/>
<path fill="#ffffff" d="   M 2365.77 480.09   L 2365.77 656.34   A 0.34 0.34 0.0 0 1 2365.43 656.68   L 2348.28 656.69   A 0.34 0.34 0.0 0 1 2347.94 656.35   L 2347.94 480.09   A 0.34 0.34 0.0 0 0 2347.60 479.75   L 2296.33 479.75   A 0.34 0.34 0.0 0 1 2295.99 479.41   L 2295.99 462.45   A 0.34 0.34 0.0 0 1 2296.33 462.11   L 2415.45 462.11   A 0.34 0.34 0.0 0 1 2415.79 462.45   L 2415.79 479.41   A 0.34 0.34 0.0 0 1 2415.45 479.75   L 2366.11 479.75   A 0.34 0.34 0.0 0 0 2365.77 480.09   Z"/>
<path fill="#ffffff" d="   M 2491.01 566.94   L 2539.66 462.67   Q 2539.91 462.13 2540.50 462.14   L 2558.25 462.15   A 0.24 0.23 12.9 0 1 2558.47 462.49   Q 2529.21 522.35 2500.07 582.03   Q 2499.05 584.12 2499.05 586.44   Q 2499.07 621.31 2499.05 656.11   Q 2499.05 656.68 2498.47 656.69   L 2483.49 656.69   Q 2482.80 656.69 2482.80 655.99   L 2482.80 584.51   A 2.27 2.24 32.3 0 0 2482.57 583.52   L 2423.72 462.54   A 0.27 0.27 0.0 0 1 2423.96 462.15   L 2441.26 462.13   Q 2441.85 462.13 2442.10 462.67   L 2490.61 566.94   A 0.22 0.22 0.0 0 0 2491.01 566.94   Z"/>
<rect fill="#ffffff" x="1619.46" y="462.18" width="17.84" height="194.54" rx="0.33"/>
<path fill="#ffffff" d="   M 1840.44 639.32   L 1930.44 639.32   A 0.36 0.36 0.0 0 1 1930.80 639.68   L 1930.80 656.36   A 0.36 0.36 0.0 0 1 1930.44 656.72   L 1822.59 656.72   A 0.36 0.36 0.0 0 1 1822.23 656.36   L 1822.23 462.54   A 0.36 0.36 0.0 0 1 1822.59 462.18   L 1927.97 462.18   A 0.36 0.36 0.0 0 1 1928.33 462.54   L 1928.33 479.39   A 0.36 0.36 0.0 0 1 1927.97 479.75   L 1840.44 479.75   A 0.36 0.36 0.0 0 0 1840.08 480.11   L 1840.08 549.86   A 0.36 0.36 0.0 0 0 1840.44 550.22   L 1904.79 550.22   A 0.36 0.36 0.0 0 1 1905.15 550.58   L 1905.16 566.11   A 0.36 0.36 0.0 0 1 1904.80 566.47   L 1840.44 566.47   A 0.36 0.36 0.0 0 0 1840.08 566.83   L 1840.08 638.96   A 0.36 0.36 0.0 0 0 1840.44 639.32   Z"/>
</svg>