<?xml version="1.0" encoding="UTF-8" standalone="no"?><!DOCTYPE svg PUBLIC "-//W3C//DTD SVG 1.1//EN" "http://www.w3.org/Graphics/SVG/1.1/DTD/svg11.dtd"><svg xmlns="http://www.w3.org/2000/svg" version="1.1" viewBox="0.00 0.00 1449.00 211.00">
<path fill="#ffffff" d="   M 65.14 0.00   L 134.10 0.00   L 69.08 69.97   Q 68.74 70.34 69.08 70.71   L 133.54 139.89   Q 133.82 140.18 134.21 140.25   Q 134.39 140.28 134.56 140.29   Q 135.15 140.31 134.75 140.74   L 100.08 177.24   Q 99.72 177.62 99.43 177.31   L 0.44 70.93   Q -0.06 70.39 0.44 69.84   L 65.14 0.00   Z"/>
<path fill="#ffffff" d="   M 724.45 178.12   L 687.05 178.11   A 0.30 0.30 0.0 0 1 686.75 177.81   L 686.75 4.18   A 0.30 0.30 0.0 0 1 687.05 3.88   L 724.45 3.89   A 0.30 0.30 0.0 0 1 724.75 4.19   L 724.75 109.89   A 0.30 0.30 0.0 0 0 725.29 110.08   L 762.06 63.36   A 0.30 0.30 0.0 0 1 762.30 63.25   L 807.35 63.25   A 0.30 0.30 0.0 0 1 807.58 63.74   L 763.86 114.98   A 0.30 0.30 0.0 0 0 763.85 115.35   L 809.49 177.64   A 0.30 0.30 0.0 0 1 809.25 178.12   L 763.21 178.11   A 0.30 0.30 0.0 0 1 762.96 177.98   L 725.30 122.72   A 0.30 0.30 0.0 0 0 724.75 122.89   L 724.75 177.82   A 0.30 0.30 0.0 0 1 724.45 178.12   Z"/>
<ellipse fill="#ffffff" cx="0.00" cy="0.00" transform="translate(1331.22,26.72) rotate(-2.5)" rx="21.67" ry="20.75"/>
<path fill="#ffffff" d="   M 1384.00 62.75   L 1384.00 33.56   Q 1384.00 33.13 1384.44 33.13   L 1420.72 33.13   A 0.40 0.40 0.0 0 1 1421.12 33.53   L 1421.12 62.69   Q 1421.12 63.25 1421.69 63.25   L 1447.50 63.25   Q 1448.00 63.25 1448.00 63.75   L 1448.00 90.94   Q 1448.00 91.62 1447.32 91.62   L 1421.60 91.62   Q 1421.13 91.62 1421.13 92.09   Q 1421.11 114.32 1421.09 136.75   Q 1421.09 142.81 1423.57 146.92   C 1427.44 153.33 1439.91 151.83 1445.85 150.03   Q 1446.44 149.85 1446.45 150.47   L 1446.90 176.70   A 0.93 0.92 81.3 0 1 1446.24 177.60   C 1431.94 181.87 1411.75 183.11 1398.63 174.53   C 1386.34 166.50 1384.26 152.00 1384.26 138.52   Q 1384.26 115.34 1384.25 92.15   Q 1384.25 91.61 1383.71 91.61   L 1366.18 91.62   A 0.44 0.43 90.0 0 1 1365.75 91.18   L 1365.75 63.50   A 0.25 0.25 0.0 0 1 1366.00 63.25   L 1383.50 63.25   Q 1384.00 63.25 1384.00 62.75   Z"/>
<path fill="#ffffff" d="   M 204.97 211.00   L 135.91 211.00   L 201.13 140.96   A 0.43 0.42 45.5 0 0 201.13 140.37   L 136.49 70.99   Q 136.29 70.77 136.00 70.75   Q 135.83 70.73 135.68 70.73   Q 134.96 70.69 135.46 70.17   L 169.82 34.03   A 0.58 0.58 0.0 0 1 170.66 34.03   C 182.52 46.51 194.65 58.90 206.37 71.64   Q 238.06 106.07 269.81 140.36   A 0.50 0.50 0.0 0 1 269.81 141.04   L 204.97 211.00   Z"/>
<path fill="#ffffff" d="   M 579.67 131.45   C 581.56 145.03 594.40 152.70 607.26 152.85   Q 622.63 153.02 632.08 141.20   A 0.66 0.65 -54.6 0 1 632.95 141.05   L 658.23 157.04   Q 658.74 157.36 658.39 157.85   C 644.23 177.50 620.77 183.84 597.50 181.28   C 574.26 178.72 553.81 164.79 546.51 142.26   C 542.31 129.30 542.45 113.54 546.61 100.54   C 555.39 73.05 581.04 58.23 609.25 59.69   Q 624.90 60.49 637.53 68.40   C 658.61 81.61 664.26 107.20 662.96 130.32   Q 662.93 131.00 662.24 131.00   L 580.06 131.00   Q 579.61 131.00 579.67 131.45   Z   M 609.85 85.95   C 595.48 83.75 582.54 91.94 579.61 106.41   A 0.91 0.90 -84.2 0 0 580.49 107.50   L 627.75 107.50   Q 628.27 107.50 628.26 106.98   Q 628.04 98.23 622.93 92.56   Q 618.14 87.23 609.85 85.95   Z"/>
<path fill="#ffffff" d="   M 1003.94 62.17   C 1030.27 55.21 1060.19 62.26 1076.66 85.09   C 1093.93 109.03 1089.79 145.53 1068.14 165.39   C 1050.05 181.99 1021.81 185.73 999.21 177.48   C 944.44 157.50 947.00 77.22 1003.94 62.17   Z   M 1037.57 94.92   Q 1033.61 92.19 1029.25 91.48   C 1006.26 87.72 992.92 106.73 997.27 127.74   Q 999.38 137.91 1006.10 143.66   C 1017.36 153.28 1036.22 151.94 1044.92 139.46   C 1054.91 125.11 1052.32 105.05 1037.57 94.92   Z"/>
<path fill="#ffffff" d="   M 860.24 78.74   A 0.35 0.35 0.0 0 0 860.90 78.91   C 868.61 65.31 884.53 58.82 899.76 60.26   C 925.55 62.71 936.79 83.26 936.89 107.00   Q 937.04 142.30 937.00 177.60   Q 937.00 178.12 936.48 178.12   L 899.37 178.11   A 0.49 0.48 0.0 0 1 898.88 177.63   Q 898.90 145.25 898.87 112.75   C 898.87 103.83 895.28 92.84 885.01 91.42   C 873.40 89.82 864.88 96.99 862.39 107.75   Q 861.65 111.00 861.63 118.30   Q 861.58 148.09 861.62 177.74   A 0.37 0.37 0.0 0 1 861.25 178.11   L 823.83 178.12   A 0.21 0.21 0.0 0 1 823.62 177.91   L 823.62 63.47   A 0.22 0.22 0.0 0 1 823.84 63.25   L 859.75 63.25   Q 860.25 63.25 860.25 63.75   L 860.24 78.74   Z"/>
<path fill="#ffffff" d="   M 475.41 135.35   L 495.14 63.89   A 0.88 0.88 0.0 0 1 495.99 63.25   L 533.98 63.25   A 0.37 0.36 9.1 0 1 534.33 63.73   L 494.71 177.77   A 0.51 0.51 0.0 0 1 494.23 178.11   L 456.99 178.12   Q 456.60 178.12 456.48 177.75   L 434.20 107.21   Q 433.77 105.87 433.36 107.22   L 411.53 177.73   Q 411.41 178.12 411.01 178.12   L 374.03 178.11   A 0.86 0.85 -9.6 0 1 373.22 177.54   L 333.93 63.74   A 0.37 0.36 -9.9 0 1 334.28 63.25   L 374.01 63.25   Q 374.52 63.25 374.66 63.74   Q 384.47 99.59 394.28 135.49   Q 394.38 135.87 394.69 135.92   A 0.40 0.39 11.9 0 0 395.14 135.63   L 415.43 63.81   Q 415.59 63.25 416.17 63.25   L 453.25 63.25   A 0.43 0.43 0.0 0 1 453.66 63.56   L 474.63 135.35   Q 475.03 136.72 475.41 135.35   Z"/>
<path fill="#ffffff" d="   M 1258.24 63.25   L 1296.65 63.25   A 0.35 0.35 0.0 0 1 1296.98 63.71   L 1257.31 177.88   A 0.35 0.35 0.0 0 1 1256.98 178.12   L 1219.51 178.11   A 0.35 0.35 0.0 0 1 1219.17 177.87   L 1196.75 106.94   A 0.35 0.35 0.0 0 0 1196.08 106.94   L 1174.14 177.87   A 0.35 0.35 0.0 0 1 1173.80 178.12   L 1136.32 178.11   A 0.35 0.35 0.0 0 1 1135.99 177.87   L 1096.56 63.71   A 0.35 0.35 0.0 0 1 1096.89 63.25   L 1136.92 63.25   A 0.35 0.35 0.0 0 1 1137.26 63.51   L 1157.03 135.94   A 0.35 0.35 0.0 0 0 1157.70 135.95   L 1178.17 63.50   A 0.35 0.35 0.0 0 1 1178.50 63.25   L 1215.96 63.25   A 0.35 0.35 0.0 0 1 1216.29 63.50   L 1237.32 135.53   A 0.35 0.35 0.0 0 0 1238.00 135.52   L 1257.90 63.51   A 0.35 0.35 0.0 0 1 1258.24 63.25   Z"/>
<rect fill="#ffffff" x="1312.38" y="63.25" width="37.74" height="114.86" rx="0.30"/>
</svg>